<?xml version="1.0" standalone="no"?><svg xmlns="http://www.w3.org/2000/svg" viewBox="0 0 1440 320"><path fill="#34D399" fill-opacity="1" d="M0,192L40,176C80,160,160,128,240,138.7C320,149,400,203,480,208C560,213,640,171,720,138.7C800,107,880,85,960,106.7C1040,128,1120,192,1200,181.3C1280,171,1360,85,1400,42.7L1440,0L1440,320L1400,320C1360,320,1280,320,1200,320C1120,320,1040,320,960,320C880,320,800,320,720,320C640,320,560,320,480,320C400,320,320,320,240,320C160,320,80,320,40,320L0,320Z"></path></svg>